<?xml version="1.0" encoding="UTF-8"?>
<!DOCTYPE svg PUBLIC "-//W3C//DTD SVG 1.1//EN" "http://www.w3.org/Graphics/SVG/1.1/DTD/svg11.dtd">
<!-- Creator: CorelDRAW 2018 (64-Bit) -->
<svg xmlns="http://www.w3.org/2000/svg" xml:space="preserve" width="12mm" height="12mm" version="1.1" style="shape-rendering:geometricPrecision; text-rendering:geometricPrecision; image-rendering:optimizeQuality; fill-rule:evenodd; clip-rule:evenodd"
viewBox="0 0 228.88 228.88"
 xmlns:xlink="http://www.w3.org/1999/xlink"
 enable-background="new 0 0 24 24">
 <defs>
  <style type="text/css">
   <![CDATA[
    .fil0 {fill:#E50E79}
    .fil1 {fill:white}
   ]]>
  </style>
 </defs>
 <g id="Слой_x0020_1">
  <metadata id="CorelCorpID_0Corel-Layer"/>
  <rect class="fil0" width="228.88" height="228.88" rx="38.25" ry="37.8"/>
  <g id="social-media.svg">
   <path class="fil1" d="M139.34 178.15c0.11,-0.03 0.22,-0.08 0.34,-0.12 69.68,-27.68 50.4,-132.05 -25.17,-132.05 -37.93,0 -68.45,30.92 -68.45,68.45 0,47.5 48.11,81.39 93.29,63.72zm-63.16 -17.75c4.86,-8.17 20.59,-31.21 47.43,-39.17 5.61,14.31 9.55,31.01 9.94,49.94 -20.34,6.84 -41.8,2.24 -57.37,-10.77l0 0zm65.78 7.2c-0.75,-18.19 -4.46,-34.32 -9.75,-48.3 11.88,-1.85 25.63,-0.62 41.21,5.63 -3.31,18.6 -15.21,34.24 -31.46,42.67zm32.36 -51.52c-17.17,-6.45 -32.3,-7.26 -45.4,-4.76 -2.03,-4.56 -4.15,-8.95 -6.41,-12.99 20.1,-8.03 31.97,-17.81 37.29,-22.99 9.38,10.86 14.96,24.92 14.52,40.73zm-20.59 -46.83c-4.84,4.6 -16.23,13.9 -35.71,21.51 -9.55,-15.1 -19.76,-25.76 -26.23,-31.73 20.7,-8.52 44.56,-4.88 61.94,10.22zm-70.12 -6.04c4.88,4.3 15.6,14.61 25.94,30.56 -14.2,4.58 -32.01,7.93 -53.67,8.41 3.44,-16.51 13.73,-30.5 27.73,-38.97l0 0zm-28.81 47.56c24.24,-0.39 43.86,-4.22 59.38,-9.4 2.14,3.76 4.18,7.85 6.14,12.11 -27.01,8.6 -43.89,30.81 -50.35,40.84 -10.43,-11.64 -16.18,-26.82 -15.16,-43.55l0 0z"/>
  </g>
 </g>
</svg>
