<?xml version="1.0" encoding="UTF-8"?>
<!DOCTYPE svg PUBLIC "-//W3C//DTD SVG 1.1//EN" "http://www.w3.org/Graphics/SVG/1.1/DTD/svg11.dtd">
<!-- Creator: CorelDRAW 2018 (64-Bit) -->
<svg xmlns="http://www.w3.org/2000/svg" xml:space="preserve" width="12mm" height="12mm" version="1.1" style="shape-rendering:geometricPrecision; text-rendering:geometricPrecision; image-rendering:optimizeQuality; fill-rule:evenodd; clip-rule:evenodd"
viewBox="0 0 145.18 145.18"
 xmlns:xlink="http://www.w3.org/1999/xlink">
 <defs>
  <style type="text/css">
   <![CDATA[
    .fil0 {fill:#284690}
    .fil1 {fill:white}
   ]]>
  </style>
 </defs>
 <g id="Слой_x0020_1">
  <metadata id="CorelCorpID_0Corel-Layer"/>
  <rect class="fil0" width="145.18" height="145.18" rx="24.26" ry="23.98"/>
  <g>
   <path id="Facebook" class="fil1" d="M77.87 40.08l6.72 0 -0.04 7.23 -6.23 -0c-0.13,-0.02 -0.26,-0.03 -0.38,-0.03 -1.64,0 -2.97,1.33 -2.97,2.97 0,0 0,0 0,0l0 11.46 12.14 0 -1.69 7.23 -10.48 0 0 36.14 -7.2 0 0 -36.14 -9.57 0 -0.02 -7.23 9.6 0 0 -11.24c-0.02,-0.28 -0.04,-0.57 -0.04,-0.86 0,-5.28 4.28,-9.57 9.56,-9.57 0.2,0 0.41,0.01 0.61,0.02l-0.01 0zm6.73 0l0 0 0 0zm-6.74 -4.83l0 0c-0.02,0 -0.04,0 -0.06,0 -2.89,0 -5.73,0.76 -8.24,2.21 -4.15,2.58 -6.68,7.12 -6.68,12.01 0,0.34 0.01,0.68 0.04,1.02l0 6.4 -4.8 -0c-1.28,0 -2.51,0.52 -3.4,1.44 -0.9,0.9 -1.4,2.12 -1.4,3.39 0,0.01 0,0.02 0,0.03l0 7.2c0,2.66 2.15,4.81 4.8,4.83l4.76 0 0 31.31c0,0.01 0,0.02 0,0.03 0,2.65 2.15,4.8 4.8,4.8 0,0 0,0 0,0l7.2 0c0,-0 0,-0 0,-0 2.65,0 4.8,-2.15 4.8,-4.8 0,-0.01 0,-0.02 0,-0.03l0 -31.31 5.68 0c2.14,-0.02 4.02,-1.43 4.61,-3.49l1.69 -7.2c0.13,-0.44 0.19,-0.9 0.19,-1.36 0,-2.66 -2.15,-4.83 -4.81,-4.85l-7.33 0 0 -4.74 4.78 0c2.65,0 4.8,-2.15 4.8,-4.8l0.04 -7.01c0,-0.1 0,-0.16 0,-0.26 0,-0 0,-0.01 0,-0.01 0,-2.65 -2.15,-4.81 -4.8,-4.82l-6.74 0 0.06 0z"/>
  </g>
 </g>
</svg>
