<?xml version="1.0" encoding="UTF-8"?>
<!DOCTYPE svg PUBLIC "-//W3C//DTD SVG 1.1//EN" "http://www.w3.org/Graphics/SVG/1.1/DTD/svg11.dtd">
<!-- Creator: CorelDRAW 2018 (64-Bit) -->
<svg xmlns="http://www.w3.org/2000/svg" xml:space="preserve" width="12mm" height="12mm" version="1.1" style="shape-rendering:geometricPrecision; text-rendering:geometricPrecision; image-rendering:optimizeQuality; fill-rule:evenodd; clip-rule:evenodd"
viewBox="0 0 528.51 528.51"
 xmlns:xlink="http://www.w3.org/1999/xlink">
 <defs>
  <style type="text/css">
   <![CDATA[
    .fil0 {fill:#0099DE}
    .fil1 {fill:white}
   ]]>
  </style>
 </defs>
 <g id="Слой_x0020_1">
  <metadata id="CorelCorpID_0Corel-Layer"/>
  <rect class="fil0" x="-0" width="528.51" height="528.51" rx="88.33" ry="87.29"/>
  <g>
   <path id="Twitter" class="fil1" d="M308.48 173.87c0.1,-0 0.21,-0 0.31,-0 12.85,0 25.16,5.21 34.08,14.45 10.48,-2 20.62,-5.76 29.9,-11.07 -3.59,10.63 -10.97,19.6 -20.71,25.17 9.33,-1.02 18.47,-3.46 27.06,-7.23 -6.33,9.23 -14.31,17.26 -23.5,23.66 0.08,1.98 0.13,3.96 0.13,5.94 -0.59,71.88 -59.07,129.85 -130.94,129.85 -1.01,0 -2.06,-0.01 -3.05,-0.03 -0.09,0 -0.19,0 -0.28,0 -25.43,0 -50.38,-7.12 -71.97,-20.51 3.68,0.35 7.42,0.58 11.24,0.58 0.15,-0 0.31,-0 0.46,-0 20.96,0 41.37,-6.88 58.04,-19.57 -19.88,-0.14 -37.51,-12.8 -44,-31.58 2.92,0.5 5.9,0.79 8.87,0.81 4.19,0 8.35,-0.55 12.4,-1.63 -21.69,-3.94 -37.54,-22.7 -37.8,-44.74l0 -0.58c6.56,3.56 13.89,5.53 21.35,5.71 -13.01,-8.26 -20.92,-22.59 -20.98,-38 0,0 0,-0.01 0,-0.02 0,-8.04 2.21,-15.94 6.39,-22.81 24.36,28.62 59.54,45.9 97.09,47.66 -0.81,-3.39 -1.22,-6.88 -1.22,-10.37 0.37,-25.33 21.03,-45.68 46.37,-45.68 0.24,0 0.5,0.01 0.74,0.01l0.04 0zm70.6 21.33l0 0 0 0zm-70.67 -37.64c-0.19,-0 -0.39,-0 -0.59,-0 -31.21,0 -57.72,22.85 -62.33,53.72 -26.34,-5.14 -50.15,-19.13 -67.48,-39.61 -3.1,-3.7 -7.69,-5.83 -12.5,-5.83 -0.01,0 -0.03,0 -0.04,0 -0.07,0 -0.15,-0 -0.22,-0 -0.36,0 -0.73,0.04 -1.08,0.12 -5.28,0.35 -10.05,3.27 -12.75,7.8 -5.71,9.47 -8.74,20.34 -8.74,31.4 0,7.26 1.31,14.47 3.84,21.27 -2.7,3.01 -4.21,6.91 -4.23,10.95l0 0.58c0.04,15.67 6.1,30.73 16.89,42.06 -0.24,1.14 -0.37,2.3 -0.37,3.47 0,1.75 0.28,3.49 0.82,5.15 3.6,10.79 10.13,20.41 18.84,27.74 -5.83,1.29 -11.81,1.97 -17.78,1.97 -3.12,-0 -6.24,-0.2 -9.33,-0.57 -0.53,-0.09 -1.08,-0.13 -1.63,-0.13 -0.11,0 -0.22,0 -0.32,0 -9.05,0 -16.38,7.34 -16.38,16.38 0,5.66 2.92,10.93 7.73,13.91 24.21,15 52.15,22.95 80.63,22.95 0.07,0 0.15,0 0.22,0 1.18,0.03 2.42,0.05 3.62,0.05 79.99,0 145.31,-64.08 146.8,-144.06 7.62,-6.32 14.4,-13.67 20.08,-21.8 2.15,-2.82 3.32,-6.27 3.32,-9.82 0,-0.03 0,-0.06 0,-0.09 -5.95,-9.38 -10.18,-19.77 -12.42,-30.65 -2.92,-2.4 -6.58,-3.72 -10.35,-3.73 -2.85,0.05 -5.66,0.81 -8.15,2.22 -5.43,3.14 -11.27,5.62 -17.31,7.34 -11.18,-8.32 -24.75,-12.83 -38.69,-12.83 -0.02,0 -0.07,0 -0.09,0l0 0 -0.03 0z"/>
  </g>
 </g>
</svg>
